<?xml version="1.0" encoding="UTF-8"?>
<svg id="b" data-name="Layer 2" xmlns="http://www.w3.org/2000/svg" viewBox="0 0 53.64 51.3">
  <defs>
    <style>
      .d {
        fill: #ffdc00;
      }
    </style>
  </defs>
  <g id="c" data-name="Layer 1">
    <path class="d" d="m29.58,2l4.34,13.36c.39,1.2,1.5,2,2.76,2h14.05c2.81,0,3.98,3.6,1.7,5.25l-11.37,8.26c-1.02.74-1.44,2.05-1.05,3.24l4.34,13.36c.87,2.67-2.19,4.89-4.46,3.24l-11.37-8.26c-1.02-.74-2.39-.74-3.41,0l-11.37,8.26c-2.27,1.65-5.33-.57-4.46-3.24l4.34-13.36c.39-1.2-.04-2.5-1.05-3.24L1.2,22.62c-2.27-1.65-1.1-5.25,1.7-5.25h14.05c1.26,0,2.37-.81,2.76-2l4.34-13.36c.87-2.67,4.65-2.67,5.52,0Z"/>
  </g>
</svg>