<?xml version="1.0" encoding="UTF-8"?>
<svg id="b" data-name="Layer 2" xmlns="http://www.w3.org/2000/svg" viewBox="0 0 33.25 56.76">
  <defs>
    <style>
      .d {
        fill: #ffdc00;
      }
    </style>
  </defs>
  <g id="c" data-name="Layer 1">
    <path class="d" d="m32.69,18.85c-.39-1.59-.86-3.17-1.49-4.68-.18-.43-.31-.87-.51-1.28-.51-1.02-1.02-2.05-1.59-3.04-.57-.98-1.2-1.92-1.84-2.85-.87-1.26-1.85-2.44-2.89-3.56-1.05-1.12-2.15-2.18-3.34-3.16-.12-.1-.25-.19-.37-.28-.02.02-.03.03-.04.04-.94,1.76-2.03,3.42-3.29,4.97-.81,1-1.67,1.96-2.66,2.8-.93.79-1.89,1.55-2.8,2.37-1.04.95-2.05,1.93-3.04,2.92-1.18,1.18-2.26,2.44-3.27,3.77-1.41,1.86-2.64,3.82-3.6,5.95-.73,1.65-1.3,3.35-1.63,5.12-.26,1.36-.38,2.74-.33,4.12.03.82.14,1.63.22,2.45.11,1.11.42,2.17.75,3.23.45,1.43,1.08,2.77,1.83,4.06,3.22,4.97,7.57,5.04,7.4,7.12-.07.88-.06,1.76-.06,2.64-.01,1.28.11,2.55.27,3.81.06.46.12.91.19,1.4.07-.04.11-.07.15-.1.76-.61,1.51-1.22,2.28-1.81.17-.13.19-.27.16-.46-.18-1.1-.26-2.21-.27-3.32,0-1.17.14-2.32.39-3.46.04-.18.12-.24.29-.27.43-.08.85-.17,1.27-.28,1.42-.39,2.83-.84,4.19-1.42,1.26-.54,2.46-1.18,3.62-1.91,1.49-.93,2.85-2.03,4.07-3.29,1.7-1.75,3.05-3.74,4.09-5.94.8-1.7,1.37-3.47,1.78-5.31.46-2.09.65-4.21.6-6.35-.03-1.35-.23-2.69-.55-4Zm-15.27,8.22c-2.53,4.6-3.62,9.73-4.06,15.04-1.97-5.32-1.28-11.5,1.44-16.5,2.81-4.43,6.15-8.86,6.39-14.32.62,1.27.74,2.74.72,4.16-.09,4.29-2.26,8.09-4.49,11.61Z"/>
  </g>
</svg>