<?xml version="1.0" encoding="UTF-8"?>
<svg id="b" data-name="Layer 2" xmlns="http://www.w3.org/2000/svg" viewBox="0 0 1827.77 67.93">
  <defs>
    <style>
      .d {
        fill: #ffdc00;
      }
    </style>
  </defs>
  <g id="c" data-name="Layer 1">
    <g>
      <g>
        <path d="m30.75,48.98h-7.29c-.79,0-1.22-.5-1.22-1.22v-1.64c-2.15,2.22-4.93,3.58-9.08,3.58-7.36,0-13.16-4.79-13.16-15.44,0-9.94,5.29-15.52,13.23-15.52,3.22,0,6.44,1.07,9.01,3.15V1.5c0-.64.43-1.14,1.22-1.14h7.29c.72,0,1.22.5,1.22,1.14v46.26c0,.71-.5,1.22-1.22,1.22Zm-20.38-14.73c0,4.43,2,7.36,5.79,7.36,2.22,0,4.15-1,6.08-3.15v-8.65c-1.93-2-3.86-3-6.22-3-3.72,0-5.65,2.93-5.65,7.44Z"/>
        <path d="m55.27,49.69c-11.23,0-17.59-5.65-17.59-15.44s6.36-15.52,15.95-15.52c8.65,0,14.37,5.51,14.37,13.8,0,.71,0,1.93-.14,2.72-.14.64-.57.86-1.29.86h-18.66c.86,3.93,3.79,6.08,8.29,6.08,4,0,7.22-1.29,9.29-1.93.93-.29,1.36-.14,1.72.71l1.57,4.72c.21.57.21,1.14-.64,1.5-3.15,1.64-7.87,2.5-12.87,2.5Zm-7.36-18.38h10.87c-.5-3.72-2.43-5.29-5.29-5.29s-4.93,2.07-5.58,5.29Z"/>
        <path d="m89.95,40.47c0-1.5-1.07-2.22-5.93-3.15-7.22-1.36-10.58-4.36-10.58-9.22,0-5.51,4.86-9.37,13.08-9.37,4.36,0,9.51,1.22,12.44,2.79.93.5.86,1,.64,1.72l-1.79,4.15c-.36,1.14-.93,1.43-2.15.79-2.07-1.07-5.72-2.43-8.94-2.43-1.93,0-3,.71-3,1.93,0,1.36,1.14,2,6.36,3.15,6.94,1.43,10.15,3.79,10.15,9.08,0,7.08-5.86,9.8-14.01,9.8-4.72,0-9.44-1-12.94-2.72-.93-.5-1.07-1-.64-2.07l1.64-4.08c.36-1,.93-1.14,1.79-.71,3.5,1.72,7.44,2.57,10.58,2.57,2.15,0,3.29-.79,3.29-2.22Z"/>
        <path d="m105.25,9.15c0-3.07,2.43-5.51,5.51-5.51s5.65,2.43,5.65,5.51-2.43,5.58-5.65,5.58-5.51-2.43-5.51-5.58Zm.72,11.51c0-.71.57-1.21,1.22-1.21h7.29c.79,0,1.22.5,1.22,1.21v27.1c0,.71-.43,1.22-1.22,1.22h-7.29c-.64,0-1.22-.5-1.22-1.22v-27.1Z"/>
        <path d="m131.2,41.04c-.71.93-1,1.79-1,2.5,0,1.36,1,2,2.79,2h7.87c8.51,0,12.58,3.36,12.58,9.22,0,7.36-7.15,12.8-19.02,12.8-8.58,0-13.66-3.22-13.66-8.01,0-2.86,1.64-5.15,5.29-6.58-2.5-1.29-3.93-3.65-3.93-6.72,0-2.86,1.57-5.29,4.72-6.86-3.22-1.93-5-5.08-5-9.22,0-7.15,5.43-11.44,14.59-11.44,1.14,0,2.29.07,3.29.21l.36-.93c1.65-4.43,4.86-6.29,9.37-6.29h.79c.79,0,1.29.5,1.29,1.29v4.36c0,.79-.5,1.29-1.29,1.29h-1.07c-2.43,0-3.22.21-4.29,1.5l-.14.14c3.93,1.86,6.22,5.29,6.22,9.87,0,7.22-5.51,11.44-14.52,11.44-1.93,0-3.65-.21-5.22-.57Zm4.65,20.66c5.08,0,8.37-2.07,8.37-4.86,0-1.93-1.5-2.79-5.86-2.79h-5.93c-2,1-2.93,2.22-2.93,3.86,0,2.29,2.22,3.79,6.36,3.79Zm5.29-31.53c0-3.07-1.86-5-4.72-5-3,0-4.86,1.93-4.86,5s1.86,5.01,4.86,5.01,4.72-1.86,4.72-5.01Z"/>
        <path d="m157.01,20.66c0-.71.5-1.21,1.22-1.21h7.29c.79,0,1.22.5,1.22,1.21v1.79c2.5-2.29,5.72-3.72,9.58-3.72,6.65,0,11.15,3.72,11.15,11.37v17.73c0,.64-.43,1.14-1.22,1.14h-7.29c-.79,0-1.22-.43-1.22-1.07v-15.16c0-3.72-1.64-5.36-4.93-5.36-2.29,0-4.22.93-6.08,2.43v17.95c0,.71-.43,1.22-1.22,1.22h-7.29c-.71,0-1.22-.5-1.22-1.22v-27.1Z"/>
        <path d="m218.58,47.55h-1.14c-.86,0-1.43-.29-1.79-1.14l-10.58-24.95c-.57-1.43.07-2,1.5-2h6.65c1.29,0,2,.29,2.43,1.57l6.36,17.23,6.36-17.52c.29-.86.86-1.29,2-1.29h6.44c1.14,0,1.57.5,1.14,1.64l-14.01,36.25c-3.22,8.29-6.51,10.15-11.94,10.15-2.65,0-6.08-.93-8.29-1.93-.79-.5-.93-.86-.64-1.57l2-5c.29-.86.79-1,1.57-.57,1.22.5,3,1.36,4.5,1.36,2.22,0,3.15-.5,5.29-6.29l2.15-5.93Z"/>
        <path d="m239.17,34.25c0-9.87,6.51-15.52,16.59-15.52s16.52,5.65,16.52,15.52-6.44,15.44-16.52,15.44-16.59-5.65-16.59-15.44Zm22.81,0c0-4.5-2.36-7.44-6.22-7.44s-6.29,2.93-6.29,7.44,2.36,7.36,6.29,7.36,6.22-2.93,6.22-7.36Z"/>
        <path d="m286.07,19.45c.79,0,1.22.43,1.22,1.07v15.16c0,3.86,1.72,5.43,4.93,5.43,2,0,3.65-.71,5.29-1.86v-18.59c0-.71.5-1.21,1.22-1.21h7.36c.71,0,1.22.5,1.22,1.21v27.1c0,.71-.5,1.22-1.22,1.22h-7.36c-.72,0-1.22-.5-1.22-1.22v-1.5c-2.36,2.07-5.29,3.43-8.87,3.43-6.58,0-11.15-3.65-11.15-11.37v-17.66c0-.71.5-1.21,1.22-1.21h7.36Z"/>
        <path d="m314.74,20.66c0-.71.5-1.21,1.22-1.21h7.29c.79,0,1.22.5,1.22,1.21v2.93c2.22-2.86,4.65-4.86,8.37-4.86,1.5,0,2.86.14,3.86.64.93.43.79,1.07.64,1.72l-1.57,6.29c-.21.86-.79,1-1.72.71-1.07-.29-2.5-.57-4.08-.57-2.29,0-3.93.72-5.51,2v18.23c0,.71-.43,1.22-1.22,1.22h-7.29c-.71,0-1.22-.5-1.22-1.22v-27.1Z"/>
        <path d="m371.02,48.98h-7.65c-.86,0-1.5-.29-1.79-1.14l-8.94-26.38c-.5-1.43,0-2,1.5-2h6.58c1.29,0,2.15.36,2.43,1.57l4.65,17.59,5.79-17.52c.36-1.14.79-1.64,2.29-1.64h6.01c1.43,0,1.86.57,2.22,1.64l5.86,17.45,4.58-17.45c.29-1.07,1.14-1.64,2.43-1.64h6.08c1.43,0,2,.57,1.5,2l-9.01,26.38c-.29.71-.79,1.14-1.72,1.14h-7.58c-.86,0-1.43-.29-1.72-1.14l-5.94-16.95-5.93,16.95c-.21.71-.79,1.14-1.64,1.14Z"/>
        <path d="m406.55,34.25c0-9.87,6.51-15.52,16.59-15.52s16.52,5.65,16.52,15.52-6.44,15.44-16.52,15.44-16.59-5.65-16.59-15.44Zm22.81,0c0-4.5-2.36-7.44-6.22-7.44s-6.29,2.93-6.29,7.44,2.36,7.36,6.29,7.36,6.22-2.93,6.22-7.36Z"/>
        <path d="m445.38,20.66c0-.71.5-1.21,1.22-1.21h7.29c.79,0,1.22.5,1.22,1.21v2.93c2.22-2.86,4.65-4.86,8.37-4.86,1.5,0,2.86.14,3.86.64.93.43.79,1.07.64,1.72l-1.57,6.29c-.21.86-.79,1-1.72.71-1.07-.29-2.5-.57-4.08-.57-2.29,0-3.93.72-5.51,2v18.23c0,.71-.43,1.22-1.22,1.22h-7.29c-.71,0-1.22-.5-1.22-1.22v-27.1Z"/>
        <path d="m472.55,1.5c0-.64.57-1.14,1.22-1.14h7.29c.79,0,1.29.5,1.29,1.14v46.33c0,.64-.5,1.14-1.29,1.14h-7.29c-.64,0-1.22-.5-1.22-1.14V1.5Z"/>
        <path d="m518.95,48.98h-7.29c-.79,0-1.22-.5-1.22-1.22v-1.64c-2.15,2.22-4.93,3.58-9.08,3.58-7.36,0-13.16-4.79-13.16-15.44,0-9.94,5.29-15.52,13.23-15.52,3.22,0,6.44,1.07,9.01,3.15V1.5c0-.64.43-1.14,1.22-1.14h7.29c.72,0,1.22.5,1.22,1.14v46.26c0,.71-.5,1.22-1.22,1.22Zm-20.38-14.73c0,4.43,2,7.36,5.79,7.36,2.22,0,4.15-1,6.08-3.15v-8.65c-1.93-2-3.86-3-6.22-3-3.72,0-5.65,2.93-5.65,7.44Z"/>
      </g>
      <g>
        <path d="m696.57,49.34h-7.29c-.79,0-1.22-.5-1.22-1.22v-1.64c-2.15,2.22-4.93,3.58-9.08,3.58-7.36,0-13.16-4.79-13.16-15.44,0-9.94,5.29-15.52,13.23-15.52,3.22,0,6.44,1.07,9.01,3.15V1.86c0-.64.43-1.14,1.22-1.14h7.29c.72,0,1.22.5,1.22,1.14v46.26c0,.71-.5,1.22-1.22,1.22Zm-20.38-14.73c0,4.43,2,7.36,5.79,7.36,2.22,0,4.15-1,6.08-3.15v-8.65c-1.93-2-3.86-3-6.22-3-3.72,0-5.65,2.93-5.65,7.44Z"/>
        <path d="m721.1,50.05c-11.23,0-17.59-5.65-17.59-15.44s6.36-15.52,15.95-15.52c8.65,0,14.37,5.51,14.37,13.8,0,.71,0,1.93-.14,2.72-.14.64-.57.86-1.29.86h-18.66c.86,3.93,3.79,6.08,8.29,6.08,4,0,7.22-1.29,9.29-1.93.93-.29,1.36-.14,1.72.71l1.57,4.72c.21.57.21,1.14-.64,1.5-3.15,1.64-7.87,2.5-12.87,2.5Zm-7.36-18.38h10.87c-.5-3.72-2.43-5.29-5.29-5.29s-4.93,2.07-5.58,5.29Z"/>
        <path d="m755.77,40.83c0-1.5-1.07-2.22-5.93-3.15-7.22-1.36-10.58-4.36-10.58-9.22,0-5.51,4.86-9.37,13.08-9.37,4.36,0,9.51,1.22,12.44,2.79.93.5.86,1,.64,1.72l-1.79,4.15c-.36,1.14-.93,1.43-2.15.79-2.07-1.07-5.72-2.43-8.94-2.43-1.93,0-3,.71-3,1.93,0,1.36,1.14,2,6.36,3.15,6.94,1.43,10.15,3.79,10.15,9.08,0,7.08-5.86,9.8-14.01,9.8-4.72,0-9.44-1-12.94-2.72-.93-.5-1.07-1-.64-2.07l1.64-4.08c.36-1,.93-1.14,1.79-.71,3.5,1.72,7.44,2.57,10.58,2.57,2.15,0,3.29-.79,3.29-2.22Z"/>
        <path d="m771.07,9.51c0-3.07,2.43-5.51,5.51-5.51s5.65,2.43,5.65,5.51-2.43,5.58-5.65,5.58-5.51-2.43-5.51-5.58Zm.72,11.51c0-.71.57-1.21,1.22-1.21h7.29c.79,0,1.22.5,1.22,1.21v27.1c0,.71-.43,1.22-1.22,1.22h-7.29c-.64,0-1.22-.5-1.22-1.22v-27.1Z"/>
        <path d="m797.03,41.4c-.71.93-1,1.79-1,2.5,0,1.36,1,2,2.79,2h7.87c8.51,0,12.58,3.36,12.58,9.22,0,7.36-7.15,12.8-19.02,12.8-8.58,0-13.66-3.22-13.66-8.01,0-2.86,1.64-5.15,5.29-6.58-2.5-1.29-3.93-3.65-3.93-6.72,0-2.86,1.57-5.29,4.72-6.86-3.22-1.93-5-5.08-5-9.22,0-7.15,5.43-11.44,14.59-11.44,1.14,0,2.29.07,3.29.21l.36-.93c1.65-4.43,4.86-6.29,9.37-6.29h.79c.79,0,1.29.5,1.29,1.29v4.36c0,.79-.5,1.29-1.29,1.29h-1.07c-2.43,0-3.22.21-4.29,1.5l-.14.14c3.93,1.86,6.22,5.29,6.22,9.87,0,7.22-5.51,11.44-14.52,11.44-1.93,0-3.65-.21-5.22-.57Zm4.65,20.66c5.08,0,8.37-2.07,8.37-4.86,0-1.93-1.5-2.79-5.86-2.79h-5.93c-2,1-2.93,2.22-2.93,3.86,0,2.29,2.22,3.79,6.36,3.79Zm5.29-31.53c0-3.07-1.86-5-4.72-5-3,0-4.86,1.93-4.86,5s1.86,5.01,4.86,5.01,4.72-1.86,4.72-5.01Z"/>
        <path d="m822.84,21.02c0-.71.5-1.21,1.22-1.21h7.29c.79,0,1.22.5,1.22,1.21v1.79c2.5-2.29,5.72-3.72,9.58-3.72,6.65,0,11.15,3.72,11.15,11.37v17.73c0,.64-.43,1.14-1.22,1.14h-7.29c-.79,0-1.22-.43-1.22-1.07v-15.16c0-3.72-1.64-5.36-4.93-5.36-2.29,0-4.22.93-6.08,2.43v17.95c0,.71-.43,1.22-1.22,1.22h-7.29c-.71,0-1.22-.5-1.22-1.22v-27.1Z"/>
        <path d="m884.4,47.91h-1.14c-.86,0-1.43-.29-1.79-1.14l-10.58-24.95c-.57-1.43.07-2,1.5-2h6.65c1.29,0,2,.29,2.43,1.57l6.36,17.23,6.36-17.52c.29-.86.86-1.29,2-1.29h6.44c1.14,0,1.57.5,1.14,1.64l-14.01,36.25c-3.22,8.29-6.51,10.15-11.94,10.15-2.65,0-6.08-.93-8.29-1.93-.79-.5-.93-.86-.64-1.57l2-5c.29-.86.79-1,1.57-.57,1.22.5,3,1.36,4.5,1.36,2.22,0,3.15-.5,5.29-6.29l2.15-5.93Z"/>
        <path d="m904.99,34.61c0-9.87,6.51-15.52,16.59-15.52s16.52,5.65,16.52,15.52-6.43,15.44-16.52,15.44-16.59-5.65-16.59-15.44Zm22.81,0c0-4.5-2.36-7.44-6.22-7.44s-6.29,2.93-6.29,7.44,2.36,7.36,6.29,7.36,6.22-2.93,6.22-7.36Z"/>
        <path d="m951.9,19.81c.79,0,1.22.43,1.22,1.07v15.16c0,3.86,1.72,5.43,4.93,5.43,2,0,3.65-.71,5.29-1.86v-18.59c0-.71.5-1.21,1.22-1.21h7.36c.72,0,1.22.5,1.22,1.21v27.1c0,.71-.5,1.22-1.22,1.22h-7.36c-.71,0-1.22-.5-1.22-1.22v-1.5c-2.36,2.07-5.29,3.43-8.87,3.43-6.58,0-11.15-3.65-11.15-11.37v-17.66c0-.71.5-1.21,1.22-1.21h7.36Z"/>
        <path d="m980.57,21.02c0-.71.5-1.21,1.22-1.21h7.29c.79,0,1.22.5,1.22,1.21v2.93c2.22-2.86,4.65-4.86,8.37-4.86,1.5,0,2.86.14,3.86.64.93.43.79,1.07.64,1.72l-1.57,6.29c-.21.86-.79,1-1.72.71-1.07-.29-2.5-.57-4.08-.57-2.29,0-3.93.72-5.51,2v18.23c0,.71-.43,1.22-1.22,1.22h-7.29c-.71,0-1.22-.5-1.22-1.22v-27.1Z"/>
        <path d="m1021.83,40.83c0-1.5-1.07-2.22-5.94-3.15-7.22-1.36-10.58-4.36-10.58-9.22,0-5.51,4.86-9.37,13.08-9.37,4.36,0,9.51,1.22,12.44,2.79.93.5.86,1,.64,1.72l-1.79,4.15c-.36,1.14-.93,1.43-2.15.79-2.07-1.07-5.72-2.43-8.94-2.43-1.93,0-3,.71-3,1.93,0,1.36,1.14,2,6.36,3.15,6.94,1.43,10.15,3.79,10.15,9.08,0,7.08-5.86,9.8-14.01,9.8-4.72,0-9.44-1-12.94-2.72-.93-.5-1.07-1-.64-2.07l1.64-4.08c.36-1,.93-1.14,1.79-.71,3.5,1.72,7.44,2.57,10.58,2.57,2.14,0,3.29-.79,3.29-2.22Z"/>
        <path d="m1053.71,50.05c-11.23,0-17.59-5.65-17.59-15.44s6.36-15.52,15.95-15.52c8.65,0,14.37,5.51,14.37,13.8,0,.71,0,1.93-.14,2.72-.14.64-.57.86-1.29.86h-18.66c.86,3.93,3.79,6.08,8.29,6.08,4,0,7.22-1.29,9.29-1.93.93-.29,1.36-.14,1.72.71l1.57,4.72c.21.57.21,1.14-.64,1.5-3.15,1.64-7.87,2.5-12.87,2.5Zm-7.37-18.38h10.87c-.5-3.72-2.43-5.29-5.29-5.29s-4.93,2.07-5.58,5.29Z"/>
        <path d="m1072.95,1.86c0-.64.57-1.14,1.22-1.14h7.29c.79,0,1.29.5,1.29,1.14v46.33c0,.64-.5,1.14-1.29,1.14h-7.29c-.64,0-1.22-.5-1.22-1.14V1.86Z"/>
        <path d="m1087.82,26.53v-5.51c0-.64.43-1.21,1.22-1.21h3.43v-7.87c0-8.08,3.58-11.94,10.58-11.94,3.72,0,7.01,1.07,9.22,2.29.86.43,1,.79.64,1.57l-2.22,4.79c-.43.86-.79,1.07-1.64.57-1.22-.64-2.65-1.21-4.36-1.21-1.86,0-2.5,1.14-2.5,3.72v8.08h6.51c.71,0,1.22.57,1.22,1.21v5.51c0,.64-.5,1.07-1.22,1.07h-6.51v20.52c0,.71-.5,1.22-1.22,1.22h-7.29c-.79,0-1.22-.5-1.22-1.22v-20.52h-3.43c-.79,0-1.22-.43-1.22-1.07Z"/>
      </g>
      <g>
        <path d="m1274.32,48.98h-7.29c-.79,0-1.21-.5-1.21-1.22v-1.64c-2.15,2.22-4.93,3.58-9.08,3.58-7.37,0-13.16-4.79-13.16-15.44,0-9.94,5.29-15.52,13.23-15.52,3.22,0,6.44,1.07,9.01,3.15V1.5c0-.64.43-1.14,1.21-1.14h7.29c.71,0,1.21.5,1.21,1.14v46.26c0,.71-.5,1.22-1.21,1.22Zm-20.38-14.73c0,4.43,2,7.36,5.79,7.36,2.22,0,4.15-1,6.08-3.15v-8.65c-1.93-2-3.86-3-6.22-3-3.72,0-5.65,2.93-5.65,7.44Z"/>
        <path d="m1298.84,49.69c-11.23,0-17.59-5.65-17.59-15.44s6.36-15.52,15.95-15.52c8.65,0,14.37,5.51,14.37,13.8,0,.71,0,1.93-.14,2.72-.14.64-.57.86-1.29.86h-18.66c.86,3.93,3.79,6.08,8.29,6.08,4,0,7.22-1.29,9.29-1.93.93-.29,1.36-.14,1.72.71l1.57,4.72c.21.57.21,1.14-.64,1.5-3.15,1.64-7.87,2.5-12.87,2.5Zm-7.37-18.38h10.87c-.5-3.72-2.43-5.29-5.29-5.29s-4.93,2.07-5.58,5.29Z"/>
        <path d="m1333.52,40.47c0-1.5-1.07-2.22-5.94-3.15-7.22-1.36-10.58-4.36-10.58-9.22,0-5.51,4.86-9.37,13.08-9.37,4.36,0,9.51,1.22,12.44,2.79.93.5.86,1,.64,1.72l-1.79,4.15c-.36,1.14-.93,1.43-2.15.79-2.07-1.07-5.72-2.43-8.94-2.43-1.93,0-3,.71-3,1.93,0,1.36,1.14,2,6.36,3.15,6.94,1.43,10.15,3.79,10.15,9.08,0,7.08-5.86,9.8-14.01,9.8-4.72,0-9.44-1-12.94-2.72-.93-.5-1.07-1-.64-2.07l1.64-4.08c.36-1,.93-1.14,1.79-.71,3.5,1.72,7.44,2.57,10.58,2.57,2.14,0,3.29-.79,3.29-2.22Z"/>
        <path d="m1348.82,9.15c0-3.07,2.43-5.51,5.51-5.51s5.65,2.43,5.65,5.51-2.43,5.58-5.65,5.58-5.51-2.43-5.51-5.58Zm.71,11.51c0-.71.57-1.21,1.22-1.21h7.29c.79,0,1.22.5,1.22,1.21v27.1c0,.71-.43,1.22-1.22,1.22h-7.29c-.64,0-1.22-.5-1.22-1.22v-27.1Z"/>
        <path d="m1374.78,41.04c-.71.93-1,1.79-1,2.5,0,1.36,1,2,2.79,2h7.87c8.51,0,12.58,3.36,12.58,9.22,0,7.36-7.15,12.8-19.02,12.8-8.58,0-13.66-3.22-13.66-8.01,0-2.86,1.64-5.15,5.29-6.58-2.5-1.29-3.93-3.65-3.93-6.72,0-2.86,1.57-5.29,4.72-6.86-3.22-1.93-5.01-5.08-5.01-9.22,0-7.15,5.43-11.44,14.59-11.44,1.14,0,2.29.07,3.29.21l.36-.93c1.64-4.43,4.86-6.29,9.37-6.29h.79c.79,0,1.29.5,1.29,1.29v4.36c0,.79-.5,1.29-1.29,1.29h-1.07c-2.43,0-3.22.21-4.29,1.5l-.14.14c3.93,1.86,6.22,5.29,6.22,9.87,0,7.22-5.5,11.44-14.51,11.44-1.93,0-3.65-.21-5.22-.57Zm4.65,20.66c5.08,0,8.37-2.07,8.37-4.86,0-1.93-1.5-2.79-5.86-2.79h-5.93c-2,1-2.93,2.22-2.93,3.86,0,2.29,2.22,3.79,6.36,3.79Zm5.29-31.53c0-3.07-1.86-5-4.72-5-3,0-4.86,1.93-4.86,5s1.86,5.01,4.86,5.01,4.72-1.86,4.72-5.01Z"/>
        <path d="m1400.59,20.66c0-.71.5-1.21,1.22-1.21h7.29c.79,0,1.22.5,1.22,1.21v1.79c2.5-2.29,5.72-3.72,9.58-3.72,6.65,0,11.16,3.72,11.16,11.37v17.73c0,.64-.43,1.14-1.22,1.14h-7.29c-.79,0-1.22-.43-1.22-1.07v-15.16c0-3.72-1.64-5.36-4.93-5.36-2.29,0-4.22.93-6.08,2.43v17.95c0,.71-.43,1.22-1.22,1.22h-7.29c-.71,0-1.22-.5-1.22-1.22v-27.1Z"/>
        <path d="m1462.15,47.55h-1.14c-.86,0-1.43-.29-1.79-1.14l-10.58-24.95c-.57-1.43.07-2,1.5-2h6.65c1.29,0,2,.29,2.43,1.57l6.36,17.23,6.36-17.52c.29-.86.86-1.29,2-1.29h6.43c1.14,0,1.57.5,1.14,1.64l-14.01,36.25c-3.22,8.29-6.51,10.15-11.94,10.15-2.65,0-6.08-.93-8.29-1.93-.79-.5-.93-.86-.64-1.57l2-5c.29-.86.79-1,1.57-.57,1.22.5,3,1.36,4.5,1.36,2.22,0,3.15-.5,5.29-6.29l2.15-5.93Z"/>
        <path d="m1482.74,34.25c0-9.87,6.51-15.52,16.59-15.52s16.52,5.65,16.52,15.52-6.43,15.44-16.52,15.44-16.59-5.65-16.59-15.44Zm22.81,0c0-4.5-2.36-7.44-6.22-7.44s-6.29,2.93-6.29,7.44,2.36,7.36,6.29,7.36,6.22-2.93,6.22-7.36Z"/>
        <path d="m1529.65,19.45c.79,0,1.22.43,1.22,1.07v15.16c0,3.86,1.72,5.43,4.93,5.43,2,0,3.65-.71,5.29-1.86v-18.59c0-.71.5-1.21,1.22-1.21h7.36c.72,0,1.22.5,1.22,1.21v27.1c0,.71-.5,1.22-1.22,1.22h-7.36c-.71,0-1.22-.5-1.22-1.22v-1.5c-2.36,2.07-5.29,3.43-8.87,3.43-6.58,0-11.15-3.65-11.15-11.37v-17.66c0-.71.5-1.21,1.22-1.21h7.36Z"/>
        <path d="m1558.32,20.66c0-.71.5-1.21,1.22-1.21h7.29c.79,0,1.22.5,1.22,1.21v2.93c2.22-2.86,4.65-4.86,8.37-4.86,1.5,0,2.86.14,3.86.64.93.43.79,1.07.64,1.72l-1.57,6.29c-.21.86-.79,1-1.72.71-1.07-.29-2.5-.57-4.08-.57-2.29,0-3.93.72-5.51,2v18.23c0,.71-.43,1.22-1.22,1.22h-7.29c-.71,0-1.22-.5-1.22-1.22v-27.1Z"/>
        <path d="m1598,9.15c0-3.07,2.43-5.51,5.51-5.51s5.65,2.43,5.65,5.51-2.43,5.58-5.65,5.58-5.51-2.43-5.51-5.58Zm.71,11.51c0-.71.57-1.21,1.22-1.21h7.29c.79,0,1.22.5,1.22,1.21v27.1c0,.71-.43,1.22-1.22,1.22h-7.29c-.64,0-1.22-.5-1.22-1.22v-27.1Z"/>
        <path d="m1645.05,48.98h-7.29c-.79,0-1.21-.5-1.21-1.22v-1.64c-2.15,2.22-4.93,3.58-9.08,3.58-7.37,0-13.16-4.79-13.16-15.44,0-9.94,5.29-15.52,13.23-15.52,3.22,0,6.44,1.07,9.01,3.15V1.5c0-.64.43-1.14,1.21-1.14h7.29c.71,0,1.21.5,1.21,1.14v46.26c0,.71-.5,1.22-1.21,1.22Zm-20.38-14.73c0,4.43,2,7.36,5.79,7.36,2.22,0,4.15-1,6.08-3.15v-8.65c-1.93-2-3.86-3-6.22-3-3.72,0-5.65,2.93-5.65,7.44Z"/>
        <path d="m1669.57,49.69c-11.23,0-17.59-5.65-17.59-15.44s6.36-15.52,15.95-15.52c8.65,0,14.37,5.51,14.37,13.8,0,.71,0,1.93-.14,2.72-.14.64-.57.86-1.29.86h-18.66c.86,3.93,3.79,6.08,8.29,6.08,4,0,7.22-1.29,9.29-1.93.93-.29,1.36-.14,1.72.71l1.57,4.72c.21.57.21,1.14-.64,1.5-3.15,1.64-7.87,2.5-12.87,2.5Zm-7.37-18.38h10.87c-.5-3.72-2.43-5.29-5.29-5.29s-4.93,2.07-5.58,5.29Z"/>
        <path d="m1713.83,48.76c-.86.86-2.43,1.14-4,0l-2.57-2.07c-3.72,2.22-6.29,2.86-9.44,2.86-6.44,0-10.58-3.36-10.58-9.3,0-4.5,3.72-8.51,11.73-8.51h5.72v-.79c0-2.72-1.43-3.93-4.29-3.93-3.08,0-6.36,1.07-9.44,2.36-.93.36-1.29.07-1.64-.86l-1.86-4.65c-.36-.93,0-1.5,1-1.93,3.5-1.72,8.01-3.22,13.59-3.22,7.58,0,12.44,2.86,12.44,11.94v9.15c0,1.14.14,1.5.86,2.07l2.07,1.5c.79.5.71,1.36.14,1.86l-3.72,3.5Zm-9.15-6.94v-5.36h-3.65c-3.22,0-4.43,1.21-4.43,3.36,0,2,1.36,3.29,4,3.29,1.43,0,2.57-.36,4.08-1.29Z"/>
        <path d="m1738.21,40.47c0-1.5-1.07-2.22-5.94-3.15-7.22-1.36-10.58-4.36-10.58-9.22,0-5.51,4.86-9.37,13.08-9.37,4.36,0,9.51,1.22,12.44,2.79.93.5.86,1,.64,1.72l-1.79,4.15c-.36,1.14-.93,1.43-2.15.79-2.07-1.07-5.72-2.43-8.94-2.43-1.93,0-3,.71-3,1.93,0,1.36,1.14,2,6.36,3.15,6.94,1.43,10.15,3.79,10.15,9.08,0,7.08-5.86,9.8-14.01,9.8-4.72,0-9.44-1-12.94-2.72-.93-.5-1.07-1-.64-2.07l1.64-4.08c.36-1,.93-1.14,1.79-.71,3.5,1.72,7.44,2.57,10.58,2.57,2.14,0,3.29-.79,3.29-2.22Z"/>
      </g>
      <path class="d" d="m595.75,10.32l4.34,13.36c.39,1.2,1.5,2,2.76,2h14.05c2.81,0,3.98,3.6,1.7,5.25l-11.37,8.26c-1.02.74-1.44,2.05-1.05,3.24l4.34,13.36c.87,2.67-2.19,4.89-4.46,3.24l-11.37-8.26c-1.02-.74-2.39-.74-3.41,0l-11.37,8.26c-2.27,1.65-5.33-.57-4.46-3.24l4.34-13.36c.39-1.2-.04-2.5-1.05-3.24l-11.37-8.26c-2.27-1.65-1.1-5.25,1.7-5.25h14.05c1.26,0,2.37-.81,2.76-2l4.34-13.36c.87-2.67,4.65-2.67,5.52,0Z"/>
      <path class="d" d="m1195.46,35.99c-4.23-10.27-13.65-16.4-22.28-15.12l.58-2.69s0-.07,0-.11l3.53-.82c1.85-1.41,2.89-3.51,3.05-5.73.15-2.03-.44-4.16-1.81-5.96l-3.32-4.37-4.12,3.13c-1.88,1.43-2.92,3.57-3.05,5.83-.12,2,.47,4.09,1.81,5.85l2.35,1.72s-.04.06-.04.1l-.65,3.05c-.57-1.19-1.82-1.81-2.86-1.38-1.09.45-1.54,1.87-1,3.17.02.05.05.09.07.14-8.04,4.72-10.98,16.41-6.5,27.29,4.48,10.88,14.8,17.12,23.83,14.81.02.05.03.1.05.15.54,1.3,1.85,1.99,2.94,1.54,1.09-.45,1.54-1.87,1-3.17-.02-.05-.05-.09-.07-.14,8.04-4.72,10.98-16.41,6.5-27.29Z"/>
      <path class="d" d="m1827.22,24.43c-.39-1.59-.86-3.17-1.49-4.68-.18-.43-.31-.87-.51-1.28-.51-1.02-1.02-2.05-1.59-3.04-.57-.98-1.2-1.92-1.84-2.85-.87-1.26-1.85-2.44-2.89-3.56-1.05-1.12-2.15-2.18-3.34-3.16-.12-.1-.25-.19-.37-.28-.02.02-.03.03-.04.04-.94,1.76-2.03,3.42-3.29,4.97-.81,1-1.67,1.96-2.66,2.8-.93.79-1.89,1.55-2.8,2.37-1.04.95-2.05,1.93-3.04,2.92-1.18,1.18-2.26,2.44-3.27,3.77-1.41,1.86-2.64,3.82-3.6,5.95-.73,1.65-1.3,3.35-1.63,5.12-.26,1.36-.38,2.74-.33,4.12.03.82.14,1.63.22,2.45.11,1.11.42,2.17.75,3.23.45,1.43,1.08,2.77,1.83,4.06,3.22,4.97,7.57,5.04,7.4,7.12-.07.88-.06,1.76-.06,2.64-.01,1.28.11,2.55.27,3.81.06.46.12.91.19,1.4.07-.04.11-.07.15-.1.76-.61,1.51-1.22,2.28-1.81.17-.13.19-.27.16-.46-.18-1.1-.26-2.21-.27-3.32,0-1.17.14-2.32.39-3.46.04-.18.12-.24.29-.27.43-.08.85-.17,1.27-.28,1.42-.39,2.83-.84,4.19-1.42,1.26-.54,2.46-1.18,3.62-1.91,1.49-.93,2.85-2.03,4.07-3.29,1.7-1.75,3.05-3.74,4.09-5.94.8-1.7,1.37-3.47,1.78-5.31.46-2.09.65-4.21.6-6.35-.03-1.35-.23-2.69-.55-4Zm-15.27,8.22c-2.53,4.6-3.62,9.73-4.06,15.04-1.97-5.32-1.28-11.5,1.44-16.5,2.81-4.43,6.15-8.86,6.39-14.32.62,1.27.74,2.74.72,4.16-.09,4.29-2.26,8.09-4.49,11.61Z"/>
    </g>
  </g>
</svg>