<?xml version="1.0" encoding="UTF-8"?>
<svg id="b" data-name="Layer 2" xmlns="http://www.w3.org/2000/svg" viewBox="0 0 38.45 65.53">
  <defs>
    <style>
      .d {
        fill: #ffdc00;
      }
    </style>
  </defs>
  <g id="c" data-name="Layer 1">
    <path class="d" d="m36.35,34.79c-4.23-10.27-13.65-16.4-22.28-15.12l.58-2.69s0-.07,0-.11l3.53-.82c1.85-1.41,2.89-3.51,3.05-5.73.15-2.03-.44-4.16-1.81-5.96l-3.32-4.37-4.12,3.13c-1.88,1.43-2.92,3.57-3.05,5.83-.12,2,.47,4.09,1.81,5.85l2.35,1.72s-.04.06-.04.1l-.65,3.05c-.57-1.19-1.82-1.81-2.86-1.38-1.09.45-1.54,1.87-1,3.17.02.05.05.09.07.14C.56,26.32-2.38,38.01,2.1,48.89c4.48,10.88,14.8,17.12,23.83,14.81.02.05.03.1.05.15.54,1.3,1.85,1.99,2.94,1.54,1.09-.45,1.54-1.87,1-3.17-.02-.05-.05-.09-.07-.14,8.04-4.72,10.98-16.41,6.5-27.29Z"/>
  </g>
</svg>