<?xml version="1.0" encoding="UTF-8"?>
<svg id="b" data-name="Layer 2" xmlns="http://www.w3.org/2000/svg" viewBox="0 0 222.79 67.68">
  <defs>
    <style>
      .d {
        fill: #ffdc00;
      }

      .e {
        fill: #3eb652;
      }
    </style>
  </defs>
  <g id="c" data-name="Layer 1">
    <g>
      <path class="d" d="m199.78,67.68h-62.7c-2.4,0-4.59-.89-6.27-2.35-2.01-1.75-3.28-4.33-3.28-7.2V21.82c0-2.42.9-4.64,2.39-6.32,1.75-1.98,4.31-3.23,7.15-3.23h62.7c2.86,0,5.43,1.26,7.18,3.26,1.47,1.68,2.36,3.88,2.36,6.29v36.31c0,2.61-1.05,4.98-2.75,6.7s-4.14,2.85-6.8,2.85Z"/>
      <g>
        <path d="m20.56,48.8h-4.88c-.53,0-.81-.33-.81-.81v-1.1c-1.43,1.48-3.3,2.39-6.07,2.39-4.93,0-8.8-3.2-8.8-10.33,0-6.65,3.54-10.38,8.85-10.38,2.15,0,4.3.72,6.03,2.1v-13.63c0-.43.29-.76.81-.76h4.88c.48,0,.81.33.81.76v30.94c0,.48-.33.81-.81.81Zm-13.63-9.85c0,2.96,1.34,4.93,3.87,4.93,1.48,0,2.77-.67,4.07-2.1v-5.79c-1.29-1.34-2.58-2.01-4.16-2.01-2.49,0-3.78,1.96-3.78,4.97Z"/>
        <path d="m36.96,49.28c-7.51,0-11.76-3.78-11.76-10.33s4.26-10.38,10.66-10.38c5.79,0,9.61,3.68,9.61,9.23,0,.48,0,1.29-.1,1.82-.1.43-.38.57-.86.57h-12.48c.57,2.63,2.53,4.06,5.55,4.06,2.68,0,4.83-.86,6.22-1.29.62-.19.91-.1,1.15.48l1.05,3.16c.14.38.14.77-.43,1-2.1,1.1-5.26,1.67-8.61,1.67Zm-4.93-12.29h7.27c-.33-2.49-1.63-3.54-3.54-3.54s-3.3,1.39-3.73,3.54Z"/>
        <path d="m60.16,43.11c0-1-.72-1.48-3.97-2.1-4.83-.91-7.08-2.92-7.08-6.17,0-3.68,3.25-6.26,8.75-6.26,2.92,0,6.36.81,8.32,1.86.62.33.57.67.43,1.15l-1.2,2.77c-.24.77-.62.96-1.43.53-1.39-.72-3.83-1.63-5.98-1.63-1.29,0-2.01.48-2.01,1.29,0,.91.77,1.34,4.26,2.1,4.64.96,6.79,2.53,6.79,6.07,0,4.73-3.92,6.55-9.37,6.55-3.16,0-6.31-.67-8.66-1.82-.62-.33-.72-.67-.43-1.39l1.1-2.73c.24-.67.62-.77,1.2-.48,2.34,1.15,4.97,1.72,7.08,1.72,1.43,0,2.2-.53,2.2-1.48Z"/>
        <path d="m70.39,22.17c0-2.06,1.63-3.68,3.68-3.68s3.78,1.63,3.78,3.68-1.63,3.73-3.78,3.73-3.68-1.63-3.68-3.73Zm.48,7.7c0-.48.38-.81.81-.81h4.88c.53,0,.81.33.81.81v18.12c0,.48-.29.81-.81.81h-4.88c-.43,0-.81-.33-.81-.81v-18.12Z"/>
        <path d="m87.75,43.49c-.48.62-.67,1.2-.67,1.67,0,.91.67,1.34,1.86,1.34h5.26c5.69,0,8.42,2.25,8.42,6.17,0,4.93-4.78,8.56-12.72,8.56-5.74,0-9.13-2.15-9.13-5.36,0-1.91,1.1-3.44,3.54-4.4-1.67-.86-2.63-2.44-2.63-4.5,0-1.91,1.05-3.54,3.16-4.59-2.15-1.29-3.35-3.4-3.35-6.17,0-4.78,3.63-7.65,9.76-7.65.77,0,1.53.05,2.2.14l.24-.62c1.1-2.97,3.25-4.21,6.26-4.21h.53c.53,0,.86.33.86.86v2.92c0,.53-.33.86-.86.86h-.72c-1.63,0-2.15.14-2.87,1l-.1.1c2.63,1.24,4.16,3.54,4.16,6.6,0,4.83-3.68,7.65-9.71,7.65-1.29,0-2.44-.14-3.49-.38Zm3.11,13.82c3.4,0,5.59-1.39,5.59-3.25,0-1.29-1-1.86-3.92-1.86h-3.97c-1.34.67-1.96,1.48-1.96,2.58,0,1.53,1.48,2.53,4.26,2.53Zm3.54-21.09c0-2.06-1.24-3.35-3.16-3.35-2.01,0-3.25,1.29-3.25,3.35s1.24,3.35,3.25,3.35,3.16-1.24,3.16-3.35Z"/>
        <path d="m105.01,29.86c0-.48.33-.81.81-.81h4.88c.53,0,.81.33.81.81v1.2c1.67-1.53,3.83-2.49,6.41-2.49,4.45,0,7.46,2.49,7.46,7.6v11.86c0,.43-.29.77-.81.77h-4.88c-.53,0-.81-.29-.81-.72v-10.14c0-2.49-1.1-3.59-3.3-3.59-1.53,0-2.82.62-4.06,1.63v12c0,.48-.29.81-.81.81h-4.88c-.48,0-.81-.33-.81-.81v-18.12Z"/>
        <path d="m128.87,45.12c0-2.25,1.72-4.11,4.02-4.11s4.21,1.86,4.21,4.11-1.86,4.16-4.21,4.16-4.02-1.82-4.02-4.16Z"/>
        <path d="m146.46,47.85h-.77c-.57,0-.96-.19-1.2-.77l-7.08-16.69c-.38-.96.05-1.34,1-1.34h4.45c.86,0,1.34.19,1.63,1.05l4.26,11.52,4.26-11.72c.19-.57.57-.86,1.34-.86h4.3c.77,0,1.05.33.77,1.1l-9.37,24.25c-2.15,5.55-4.35,6.79-7.99,6.79-1.77,0-4.07-.62-5.55-1.29-.53-.33-.62-.57-.43-1.05l1.34-3.35c.19-.57.53-.67,1.05-.38.81.33,2.01.91,3.01.91,1.48,0,2.1-.33,3.54-4.21l1.43-3.97Z"/>
        <path d="m160.24,38.95c0-6.6,4.35-10.38,11.09-10.38s11.05,3.78,11.05,10.38-4.3,10.33-11.05,10.33-11.09-3.78-11.09-10.33Zm15.25,0c0-3.01-1.58-4.97-4.16-4.97s-4.21,1.96-4.21,4.97,1.58,4.93,4.21,4.93,4.16-1.96,4.16-4.93Z"/>
        <path d="m191.6,29.05c.53,0,.81.29.81.72v10.14c0,2.58,1.15,3.63,3.3,3.63,1.34,0,2.44-.48,3.54-1.24v-12.43c0-.48.33-.81.81-.81h4.93c.48,0,.81.33.81.81v18.12c0,.48-.33.81-.81.81h-4.93c-.48,0-.81-.33-.81-.81v-1c-1.58,1.39-3.54,2.3-5.93,2.3-4.4,0-7.46-2.44-7.46-7.6v-11.81c0-.48.33-.81.81-.81h4.93Z"/>
      </g>
      <path class="e" d="m209.32,13.47v-5.27c0-2.13.81-4.07,2.14-5.52,1.5-1.65,3.66-2.68,6.07-2.68h5.27v5.27c0,2.17-.84,4.13-2.21,5.6-1.5,1.6-3.63,2.61-6,2.61h-5.27Z"/>
    </g>
  </g>
</svg>