<?xml version="1.0" encoding="UTF-8"?>
<svg id="b" data-name="Layer 2" xmlns="http://www.w3.org/2000/svg" viewBox="0 0 801.74 243.54">
  <defs>
    <style>
      .d {
        fill: #3eb652;
      }
    </style>
  </defs>
  <g id="c" data-name="Layer 1">
    <g>
      <path class="d" d="m718.91,243.54h-225.63c-8.64,0-16.53-3.19-22.56-8.45-7.22-6.3-11.79-15.57-11.79-25.9V78.52c0-8.72,3.25-16.68,8.61-22.74,6.29-7.12,15.49-11.61,25.74-11.61h225.63c10.31,0,19.55,4.54,25.85,11.73,5.29,6.04,8.5,13.96,8.5,22.62v130.67c0,9.39-3.77,17.91-9.88,24.11-6.23,6.32-14.89,10.24-24.47,10.24Z"/>
      <g>
        <path d="m74,175.62h-17.55c-1.89,0-2.93-1.2-2.93-2.93v-3.96c-5.16,5.33-11.88,8.6-21.86,8.6-17.73,0-31.67-11.53-31.67-37.17,0-23.92,12.73-37.34,31.84-37.34,7.74,0,15.49,2.58,21.68,7.57v-49.05c0-1.55,1.03-2.75,2.93-2.75h17.55c1.72,0,2.93,1.2,2.93,2.75v111.34c0,1.72-1.2,2.93-2.93,2.93Zm-49.05-35.45c0,10.67,4.82,17.73,13.94,17.73,5.34,0,9.98-2.41,14.63-7.57v-20.82c-4.65-4.82-9.29-7.23-14.97-7.23-8.95,0-13.59,7.06-13.59,17.9Z"/>
        <path d="m133.02,177.34c-27.02,0-42.33-13.6-42.33-37.17s15.32-37.34,38.38-37.34c20.82,0,34.59,13.25,34.59,33.21,0,1.72,0,4.65-.34,6.54-.34,1.55-1.38,2.07-3.1,2.07h-44.92c2.07,9.46,9.12,14.63,19.96,14.63,9.64,0,17.38-3.1,22.37-4.65,2.24-.69,3.27-.34,4.13,1.72l3.79,11.36c.52,1.38.52,2.75-1.55,3.61-7.57,3.96-18.93,6.02-30.98,6.02Zm-17.73-44.23h26.16c-1.2-8.95-5.85-12.73-12.73-12.73s-11.88,4.99-13.42,12.73Z"/>
        <path d="m216.48,155.14c0-3.61-2.58-5.34-14.28-7.57-17.38-3.27-25.47-10.5-25.47-22.2,0-13.25,11.7-22.54,31.49-22.54,10.5,0,22.89,2.93,29.94,6.71,2.24,1.2,2.07,2.41,1.55,4.13l-4.3,9.98c-.86,2.75-2.24,3.44-5.16,1.89-4.99-2.58-13.77-5.85-21.51-5.85-4.65,0-7.23,1.72-7.23,4.65,0,3.27,2.75,4.82,15.31,7.57,16.69,3.44,24.44,9.12,24.44,21.85,0,17.04-14.11,23.58-33.73,23.58-11.36,0-22.72-2.41-31.15-6.54-2.24-1.2-2.58-2.41-1.55-4.99l3.96-9.81c.86-2.41,2.24-2.75,4.3-1.72,8.43,4.13,17.9,6.19,25.47,6.19,5.16,0,7.92-1.89,7.92-5.33Z"/>
        <path d="m253.29,79.77c0-7.4,5.85-13.25,13.25-13.25s13.6,5.85,13.6,13.25-5.85,13.42-13.6,13.42-13.25-5.85-13.25-13.42Zm1.72,27.71c0-1.72,1.38-2.93,2.93-2.93h17.55c1.89,0,2.93,1.2,2.93,2.93v65.22c0,1.72-1.03,2.93-2.93,2.93h-17.55c-1.55,0-2.93-1.2-2.93-2.93v-65.22Z"/>
        <path d="m315.76,156.52c-1.72,2.24-2.41,4.3-2.41,6.02,0,3.27,2.41,4.82,6.71,4.82h18.93c20.48,0,30.29,8.09,30.29,22.2,0,17.73-17.21,30.8-45.78,30.8-20.65,0-32.87-7.74-32.87-19.27,0-6.88,3.96-12.39,12.73-15.83-6.02-3.1-9.46-8.78-9.46-16.18,0-6.88,3.79-12.73,11.36-16.52-7.74-4.65-12.04-12.22-12.04-22.2,0-17.21,13.08-27.53,35.11-27.53,2.75,0,5.51.17,7.92.52l.86-2.24c3.96-10.67,11.7-15.14,22.54-15.14h1.89c1.89,0,3.1,1.2,3.1,3.1v10.5c0,1.89-1.2,3.1-3.1,3.1h-2.58c-5.85,0-7.74.51-10.33,3.61l-.34.34c9.46,4.47,14.97,12.73,14.97,23.75,0,17.38-13.25,27.53-34.94,27.53-4.65,0-8.78-.52-12.56-1.38Zm11.19,49.74c12.22,0,20.13-4.99,20.13-11.7,0-4.65-3.61-6.71-14.11-6.71h-14.28c-4.82,2.41-7.06,5.34-7.06,9.29,0,5.51,5.34,9.12,15.32,9.12Zm12.73-75.89c0-7.4-4.47-12.05-11.36-12.05-7.23,0-11.7,4.65-11.7,12.05s4.47,12.05,11.7,12.05,11.36-4.47,11.36-12.05Z"/>
        <path d="m377.88,107.47c0-1.72,1.2-2.93,2.93-2.93h17.55c1.89,0,2.93,1.2,2.93,2.93v4.3c6.02-5.51,13.77-8.95,23.06-8.95,16,0,26.85,8.95,26.85,27.36v42.68c0,1.55-1.03,2.75-2.93,2.75h-17.55c-1.89,0-2.93-1.03-2.93-2.58v-36.48c0-8.95-3.96-12.91-11.88-12.91-5.51,0-10.15,2.24-14.63,5.85v43.2c0,1.72-1.03,2.93-2.93,2.93h-17.55c-1.72,0-2.93-1.2-2.93-2.93v-65.22Z"/>
        <path d="m463.74,162.37c0-8.09,6.2-14.8,14.46-14.8s15.14,6.71,15.14,14.8-6.71,14.97-15.14,14.97-14.46-6.54-14.46-14.97Z"/>
        <path d="m527.07,172.18h-2.75c-2.07,0-3.44-.69-4.3-2.75l-25.47-60.06c-1.38-3.44.17-4.82,3.61-4.82h16c3.1,0,4.82.69,5.85,3.79l15.32,41.47,15.32-42.16c.69-2.07,2.06-3.1,4.82-3.1h15.49c2.75,0,3.79,1.2,2.75,3.96l-33.73,87.25c-7.74,19.96-15.66,24.44-28.74,24.44-6.37,0-14.63-2.24-19.96-4.65-1.89-1.2-2.24-2.06-1.55-3.78l4.82-12.05c.69-2.07,1.89-2.41,3.79-1.38,2.93,1.2,7.23,3.27,10.84,3.27,5.34,0,7.57-1.2,12.73-15.14l5.16-14.28Z"/>
        <path d="m576.62,140.17c0-23.75,15.66-37.34,39.92-37.34s39.75,13.59,39.75,37.34-15.49,37.17-39.75,37.17-39.92-13.6-39.92-37.17Zm54.9,0c0-10.84-5.68-17.9-14.97-17.9s-15.14,7.06-15.14,17.9,5.68,17.73,15.14,17.73,14.97-7.06,14.97-17.73Z"/>
        <path d="m689.51,104.55c1.89,0,2.93,1.03,2.93,2.58v36.48c0,9.29,4.13,13.08,11.87,13.08,4.82,0,8.78-1.72,12.74-4.47v-44.75c0-1.72,1.2-2.93,2.93-2.93h17.73c1.72,0,2.93,1.2,2.93,2.93v65.22c0,1.72-1.2,2.93-2.93,2.93h-17.73c-1.72,0-2.93-1.2-2.93-2.93v-3.61c-5.68,4.99-12.74,8.26-21.34,8.26-15.83,0-26.85-8.78-26.85-27.36v-42.51c0-1.72,1.2-2.93,2.93-2.93h17.73Z"/>
      </g>
      <path class="d" d="m753.26,48.48v-18.95c0-7.65,2.91-14.63,7.69-19.88,5.4-5.93,13.19-9.65,21.84-9.65h18.95v18.95c0,7.79-3.02,14.88-7.95,20.15-5.39,5.77-13.06,9.38-21.58,9.38h-18.95Z"/>
    </g>
  </g>
</svg>